<?xml version="1.0" encoding="UTF-8" standalone="no"?>
<!-- Created with Inkscape (http://www.inkscape.org/) -->

<svg
   xmlns:dc="http://purl.org/dc/elements/1.1/"
   xmlns:cc="http://creativecommons.org/ns#"
   xmlns:rdf="http://www.w3.org/1999/02/22-rdf-syntax-ns#"
   xmlns:svg="http://www.w3.org/2000/svg"
   xmlns="http://www.w3.org/2000/svg"
   xmlns:sodipodi="http://sodipodi.sourceforge.net/DTD/sodipodi-0.dtd"
   xmlns:inkscape="http://www.inkscape.org/namespaces/inkscape"
   width="32"
   height="32"
   viewBox="0 0 8.4666667 8.4666667"
   version="1.1"
   id="svg8"
   inkscape:version="0.92.4 (5da689c313, 2019-01-14)"
   sodipodi:docname="obj.svg">
  <defs
     id="defs2" />
  <sodipodi:namedview
     id="base"
     pagecolor="#ffffff"
     bordercolor="#666666"
     borderopacity="1.0"
     inkscape:pageopacity="0.0"
     inkscape:pageshadow="2"
     inkscape:zoom="22.627417"
     inkscape:cx="27.820562"
     inkscape:cy="13.871591"
     inkscape:document-units="mm"
     inkscape:current-layer="layer1"
     showgrid="true"
     units="px"
     inkscape:snap-center="true"
     inkscape:window-width="1920"
     inkscape:window-height="1054"
     inkscape:window-x="0"
     inkscape:window-y="26"
     inkscape:window-maximized="1"
     inkscape:snap-smooth-nodes="true"
     inkscape:snap-midpoints="true"
     inkscape:snap-intersection-paths="true"
     inkscape:object-paths="true">
    <inkscape:grid
       type="xygrid"
       id="grid4518"
       spacingx="0.26458333"
       spacingy="0.26458333"
       empspacing="4" />
  </sodipodi:namedview>
  <metadata
     id="metadata5">
    <rdf:RDF>
      <cc:Work
         rdf:about="">
        <dc:format>image/svg+xml</dc:format>
        <dc:type
           rdf:resource="http://purl.org/dc/dcmitype/StillImage" />
        <dc:title></dc:title>
      </cc:Work>
    </rdf:RDF>
  </metadata>
  <g
     inkscape:label="Layer 1"
     inkscape:groupmode="layer"
     id="layer1"
     transform="translate(0,-288.53333)">
    <path
       style="fill:#000000;fill-opacity:0.99141636;fill-rule:nonzero;stroke:none;stroke-width:3.17499995;stroke-linecap:square;stroke-linejoin:miter;stroke-miterlimit:10;stroke-dasharray:none;stroke-dashoffset:0;stroke-opacity:1;paint-order:normal"
       d="m 1.5875001,289.59166 c 0.2410134,3.5e-4 0.4513434,0.16352 0.5115967,0.39688 h 0.018087 c 1.0693578,0 1.8913806,0.13457 2.5817547,0.5488 0.4352076,0.26112 0.8109373,0.63961 1.1642699,1.14567 0.1488486,-0.0673 0.3126341,-0.10697 0.4862752,-0.10697 0.655997,0 1.1916585,0.53566 1.1916585,1.19166 0,0.656 -0.5356615,1.18959 -1.1916585,1.18959 -0.1736514,0 -0.3374197,-0.0398 -0.4862752,-0.10697 -0.3533024,0.50601 -0.7291134,0.88457 -1.1642699,1.14566 -0.6903741,0.41423 -1.5123969,0.54881 -2.5817547,0.54881 h -0.01757 c -0.0603,0.23354 -0.2709074,0.39676 -0.5121134,0.39687 -0.2922509,0 -0.5291667,-0.23691 -0.5291667,-0.52916 0,-0.29225 0.2369158,-0.52917 0.5291667,-0.52917 0.240716,2.3e-4 0.4509476,0.16289 0.5115967,0.39584 h 0.018087 c 1.047309,0 1.8127864,-0.13 2.4453289,-0.50953 0.3938358,-0.2363 0.7405841,-0.58258 1.0733193,-1.05626 -0.2539488,-0.19217 -0.4254663,-0.48231 -0.4625048,-0.81494 h -3.0561441 -0.01757 c -0.060103,0.23375 -0.2707584,0.39722 -0.5121134,0.39739 -0.2922509,0 -0.5291667,-0.23692 -0.5291667,-0.52917 0,-0.29225 0.2369158,-0.52916 0.5291667,-0.52916 0.2411626,3.9e-4 0.4515418,0.16382 0.5115967,0.39739 h 0.018087 3.0561441 c 0.037477,-0.33221 0.2093093,-0.62211 0.4630209,-0.81442 -0.3328802,-0.474 -0.6798178,-0.82037 -1.0738361,-1.05679 -0.6325425,-0.37952 -1.3980199,-0.50952 -2.4453289,-0.50952 h -0.01757 c -0.060697,0.23313 -0.271205,0.39584 -0.5121134,0.39584 -0.2922509,0 -0.5291667,-0.23692 -0.5291667,-0.52917 0,-0.29225 0.2369158,-0.52917 0.5291665,-0.52917 z m 4.7619831,2.24793 c -0.5130056,0 -0.9260416,0.4151 -0.9260416,0.92811 0,0.513 0.413036,0.92552 0.9260416,0.92552 0.5130056,0 0.9255249,-0.41252 0.9255249,-0.92552 0,-0.51301 -0.4125193,-0.92811 -0.9255249,-0.92811 z"
       id="path4573"
       inkscape:connector-curvature="0" />
    <path
       style="fill:#ff2a2a;fill-opacity:0.99141636;fill-rule:nonzero;stroke:none;stroke-width:0.26458332;stroke-linecap:square;stroke-linejoin:miter;stroke-miterlimit:10;stroke-dasharray:none;stroke-dashoffset:0;stroke-opacity:1;paint-order:normal"
       d="m 6.3494832,291.83959 c 0.5130056,0 0.9255249,0.4151 0.9255249,0.92811 0,0.513 -0.4125193,0.92552 -0.9255249,0.92552 -0.5130056,0 -0.9260416,-0.41252 -0.9260416,-0.92552 0,-0.51301 0.413036,-0.92811 0.9260416,-0.92811 z"
       id="path4580"
       inkscape:connector-curvature="0" />
  </g>
</svg>
