<?xml version="1.0" encoding="UTF-8" standalone="no"?>
<!-- Created with Inkscape (http://www.inkscape.org/) -->

<svg
   xmlns:dc="http://purl.org/dc/elements/1.1/"
   xmlns:cc="http://creativecommons.org/ns#"
   xmlns:rdf="http://www.w3.org/1999/02/22-rdf-syntax-ns#"
   xmlns:svg="http://www.w3.org/2000/svg"
   xmlns="http://www.w3.org/2000/svg"
   xmlns:sodipodi="http://sodipodi.sourceforge.net/DTD/sodipodi-0.dtd"
   xmlns:inkscape="http://www.inkscape.org/namespaces/inkscape"
   width="32"
   height="32"
   viewBox="0 0 8.4666667 8.4666667"
   version="1.1"
   id="svg8"
   inkscape:version="0.92.4 (5da689c313, 2019-01-14)"
   sodipodi:docname="subj.svg">
  <defs
     id="defs2" />
  <sodipodi:namedview
     id="base"
     pagecolor="#ffffff"
     bordercolor="#666666"
     borderopacity="1.0"
     inkscape:pageopacity="0.0"
     inkscape:pageshadow="2"
     inkscape:zoom="22.627417"
     inkscape:cx="14.59496"
     inkscape:cy="13.001017"
     inkscape:document-units="mm"
     inkscape:current-layer="layer1"
     showgrid="true"
     units="px"
     inkscape:snap-center="true"
     inkscape:window-width="1920"
     inkscape:window-height="1054"
     inkscape:window-x="0"
     inkscape:window-y="26"
     inkscape:window-maximized="1">
    <inkscape:grid
       type="xygrid"
       id="grid4518"
       spacingx="0.26458333"
       spacingy="0.26458333"
       empspacing="4" />
  </sodipodi:namedview>
  <metadata
     id="metadata5">
    <rdf:RDF>
      <cc:Work
         rdf:about="">
        <dc:format>image/svg+xml</dc:format>
        <dc:type
           rdf:resource="http://purl.org/dc/dcmitype/StillImage" />
        <dc:title></dc:title>
      </cc:Work>
    </rdf:RDF>
  </metadata>
  <g
     inkscape:label="Layer 1"
     inkscape:groupmode="layer"
     id="layer1"
     transform="translate(0,-288.53333)">
    <path
       style="fill:#000000;fill-opacity:0.99141636;fill-rule:nonzero;stroke:none;stroke-width:12;stroke-linecap:square;stroke-linejoin:miter;stroke-miterlimit:10;stroke-dasharray:none;stroke-dashoffset:0;stroke-opacity:1;paint-order:normal"
       d="M 26 4 C 25.089083 4.00132 24.294135 4.6180067 24.066406 5.5 L 23.998047 5.5 C 19.95638 5.5 16.849522 6.008625 14.240234 7.5742188 C 12.595355 8.5611358 11.175274 9.9916185 9.8398438 11.904297 C 9.2772665 11.649807 8.6582344 11.5 8.0019531 11.5 C 5.5225944 11.5 3.4980469 13.524536 3.4980469 16.003906 C 3.4980469 18.483276 5.5225944 20.5 8.0019531 20.5 C 8.6582735 20.5 9.2772403 20.349458 9.8398438 20.095703 C 11.17516 22.008206 12.595548 23.438979 14.240234 24.425781 C 16.849522 25.991375 19.95638 26.5 23.998047 26.5 L 24.064453 26.5 C 24.29236 27.382696 25.088355 27.999569 26 28 C 27.10457 28 28 27.10457 28 26 C 28 24.89543 27.10457 24 26 24 C 25.090207 24.000858 24.295631 24.615651 24.066406 25.496094 L 23.998047 25.496094 C 20.039714 25.496094 17.146571 25.004757 14.755859 23.570312 C 13.267346 22.677218 11.956801 21.368413 10.699219 19.578125 C 11.659023 18.851836 12.307278 17.755254 12.447266 16.498047 L 23.998047 16.498047 L 24.064453 16.498047 C 24.291616 17.381519 25.087792 17.99934 26 18 C 27.10457 18 28 17.10457 28 16 C 28 14.89543 27.10457 14 26 14 C 25.088519 14.0015 24.293385 14.619185 24.066406 15.501953 L 23.998047 15.501953 L 12.447266 15.501953 C 12.30562 14.246368 11.656176 13.150691 10.697266 12.423828 C 11.955396 10.632345 13.266656 9.3232203 14.755859 8.4296875 C 17.146571 6.9952812 20.039714 6.5039063 23.998047 6.5039062 L 24.064453 6.5039062 C 24.293858 7.3850521 25.08948 8.000031 26 8 C 27.10457 8.0000001 28 7.1045695 28 6 C 28 4.8954305 27.10457 3.9999999 26 4 z M 8.0019531 12.496094 C 9.9408719 12.496094 11.501953 14.064971 11.501953 16.003906 C 11.501953 17.942804 9.9408719 19.501953 8.0019531 19.501953 C 6.0630343 19.501953 4.5039063 17.942804 4.5039062 16.003906 C 4.5039062 14.064971 6.0630343 12.496094 8.0019531 12.496094 z "
       transform="matrix(0.26458333,0,0,0.26458333,0,288.53333)"
       id="path4573" />
    <path
       style="fill:#ff2a2a;fill-opacity:0.99141636;fill-rule:nonzero;stroke:none;stroke-width:0.99999994;stroke-linecap:square;stroke-linejoin:miter;stroke-miterlimit:10;stroke-dasharray:none;stroke-dashoffset:0;stroke-opacity:1;paint-order:normal"
       d="m 8.0019531,12.496094 c -1.9389188,0 -3.4980469,1.568877 -3.4980469,3.507812 10e-8,1.938898 1.5591281,3.498047 3.4980469,3.498047 1.9389188,0 3.4999999,-1.559149 3.4999999,-3.498047 0,-1.938935 -1.5610811,-3.507812 -3.4999999,-3.507812 z"
       transform="matrix(0.26458333,0,0,0.26458333,0,288.53333)"
       id="path4580" />
  </g>
</svg>
